<svg xmlns="http://www.w3.org/2000/svg" version="1.1" xmlns:xlink="http://www.w3.org/1999/xlink" xmlns:svgjs="http://svgjs.com/svgjs" width="1920" height="700" preserveAspectRatio="none" viewBox="0 0 1920 700"><g mask="url(&quot;#SvgjsMask1001&quot;)" fill="none"><path d="M1090.96 839.46C1267.26 794.57 1331.91 316.64 1593.98 313.62 1856.06 310.6 1958.73 539.19 2097.01 544.62" stroke="rgba(222, 70, 73, 1)" stroke-width="2"></path><path d="M1224.97 762.3C1323.75 757.62 1287.74 598.42 1579.7 587.29 1871.65 576.16 2095.9 285.84 2289.15 279.29" stroke="rgba(222, 70, 73, 1)" stroke-width="2"></path><path d="M904.76 839.02C1047.07 818.89 984.64 499.53 1357.84 485.13 1731.04 470.73 2027.92 221.86 2264 219.13" stroke="rgba(222, 70, 73, 1)" stroke-width="2"></path><path d="M671.13 804.12C873.67 791.86 993.03 431.39 1384.23 416.52 1775.43 401.65 1907.7 161.49 2097.33 157.52" stroke="rgba(222, 70, 73, 1)" stroke-width="2"></path><path d="M1141.32 784.5C1279.41 720.77 1222.15 280.46 1480.89 279.74 1739.64 279.02 1972.31 593.72 2160.04 601.74" stroke="rgba(222, 70, 73, 1)" stroke-width="2"></path></g><defs><mask id="SvgjsMask1001"><rect width="1920" height="700" fill="#ffffff"></rect></mask></defs></svg>